<?xml version="1.0" encoding="UTF-8"?>
<svg id="Layer_1" data-name="Layer 1" xmlns="http://www.w3.org/2000/svg" viewBox="0 0 179.74 179.91">
  <path d="m166.93,179.51H12.58c-6.95,0-12.58-5.63-12.58-12.58V12.58C0,5.63,5.63,0,12.58,0h154.35c6.95,0,12.58,5.63,12.58,12.58v154.35c0,6.95-5.63,12.58-12.58,12.58" style="fill: #fff; stroke-width: 0px;"/>
  <path d="m13.45,112.74c3.56-3.56,9.33-3.56,12.89,0,3.56,3.56,3.56,9.33,0,12.89,3.56-3.56,9.33-3.56,12.89,0,3.56,3.56,3.56,9.33,0,12.89,3.56-3.56,9.33-3.56,12.89,0,3.56,3.56,3.56,9.33,0,12.89H13.45l.03-38.62s-.02-.04-.03-.06" style="stroke-width: 0px;"/>
  <path d="m136.82,28.1c-10.67-10.67-27.97-10.67-38.64,0l-8.42,8.42L22.35,103.92c3.58-2.9,8.84-2.68,12.17.65,3.56,3.56,3.56,9.33,0,12.89,3.56-3.56,9.33-3.56,12.89,0,3.56,3.56,3.56,9.33,0,12.89,3.56-3.56,9.33-3.56,12.89,0,3.56,3.56,3.56,9.33,0,12.89l68.09-68.09,8.42-8.42c10.67-10.67,10.67-27.97,0-38.64" style="stroke-width: 0px;"/>
  <polygon points="93.57 140.32 166.25 140.32 166.25 151.43 74.58 151.43 93.57 140.32" style="fill: #00e78e; stroke-width: 0px;"/>
  <polygon points="74.58 151.43 140.07 85.94 148.81 94.67 98.58 144.91 74.58 151.43" style="fill: #00e78e; stroke-width: 0px;"/>
  <path d="m154.38,151.43h-23.87c0-13.55-4.91-26.63-13.83-36.81l17.96-15.72c12.73,14.54,19.74,33.2,19.74,52.54" style="fill: #00e78e; stroke-width: 0px;"/>
</svg>