<?xml version="1.0" encoding="UTF-8"?>
<svg id="Layer_1" data-name="Layer 1" xmlns="http://www.w3.org/2000/svg" viewBox="0 0 155.05 240.26">
  <path d="m2.25,92.65c3.56-3.56,9.33-3.56,12.89,0,3.56,3.56,3.56,9.33,0,12.89,3.56-3.56,9.33-3.56,12.89,0s3.56,9.33,0,12.89c3.56-3.56,9.33-3.56,12.89,0,3.56,3.56,3.56,9.33,0,12.89H2.25l.03-38.62s-.02-.04-.03-.06" style="fill: #fff; stroke-width: 0px;"/>
  <path d="m125.62,8c-10.67-10.67-27.97-10.67-38.64,0l-8.42,8.42L11.15,83.83c3.58-2.9,8.84-2.68,12.17.65,3.56,3.56,3.56,9.33,0,12.89,3.56-3.56,9.33-3.56,12.89,0,3.56,3.56,3.56,9.33,0,12.89,3.56-3.56,9.33-3.56,12.89,0s3.56,9.33,0,12.89L117.2,55.07l8.42-8.42c10.67-10.67,10.67-27.97,0-38.64" style="fill: #fff; stroke-width: 0px;"/>
  <path d="m18.28,184.21l-4.57-16.38c-.06-.12-.12-.24-.3-.24h-2.02c-.18,0-.3.12-.3.3v16.2c0,.42-.3.71-.71.71H3.44c-.42,0-.71-.3-.71-.71v-40.18c0-.42.3-.71.71-.71h11.99c6.65,0,11.16,5.16,11.16,12.52,0,4.69-1.9,8.37-5.04,10.39-.18.06-.24.24-.18.36l5.46,17.51c.12.47-.12.83-.59.83h-7.12c-.42,0-.71-.24-.83-.59m-7.18-33.48v10.09c0,.18.12.3.3.3h2.67c2.43,0,4.15-1.96,4.15-5.28s-1.72-5.4-4.15-5.4h-2.67c-.18,0-.3.12-.3.3" style="fill: #fff; stroke-width: 0px;"/>
  <path d="m46.24,184.15l-.95-5.7c0-.18-.18-.3-.36-.3h-7.42c-.18,0-.36.06-.36.24l-1.07,5.76c-.06.47-.36.65-.77.65h-6.94c-.47,0-.71-.24-.59-.77l8.72-40.12c.06-.42.36-.65.77-.65h8.01c.42,0,.71.24.77.65l8.67,40.12c.12.53-.12.77-.59.77h-7.12c-.42,0-.71-.18-.77-.65m-7.48-12.46h5.1c.18,0,.24-.12.24-.3l-2.49-15.31c-.06-.24-.3-.24-.36,0l-2.79,15.31c-.06.24.12.3.3.3" style="fill: #fff; stroke-width: 0px;"/>
  <path d="m55.16,174.42v-1.9c0-.42.3-.71.71-.71h6.82c.42,0,.71.3.71.71v1.48c0,2.49,1.36,4.09,3.26,4.09s3.32-1.54,3.32-3.86c0-2.55-1.72-3.86-5.76-6.82-4.39-3.15-9.26-6.65-9.26-13.53s4.63-11.1,11.4-11.1,11.63,4.57,11.63,11.4v1.42c0,.42-.3.71-.71.71h-6.83c-.42,0-.71-.3-.71-.71v-1.6c0-2.43-1.36-4.04-3.38-4.04-1.84,0-3.15,1.42-3.15,3.92s1.36,3.86,5.52,6.94c6.17,4.51,9.5,7.12,9.5,13.06,0,7-4.75,11.4-11.57,11.4s-11.52-4.45-11.52-10.86" style="fill: #fff; stroke-width: 0px;"/>
  <path d="m103.64,155.84c0,7.36-4.33,12.17-10.74,12.17h-4.45c-.18,0-.3.12-.3.3v15.79c0,.42-.3.71-.71.71h-6.94c-.42,0-.71-.3-.71-.71v-40.18c0-.42.3-.71.71-.71h11.99c6.65,0,11.16,5.16,11.16,12.64m-8.37.18c0-3.56-1.72-5.58-4.21-5.58h-2.61c-.18,0-.3.12-.3.3v10.45c0,.18.12.3.3.3h2.61c2.49,0,4.21-1.96,4.21-5.46" style="fill: #fff; stroke-width: 0px;"/>
  <path d="m126.17,150.44h-12.41c-.18,0-.3.12-.3.3v9.38c0,.18.12.3.3.3h7.12c.42,0,.71.3.71.71v5.76c0,.42-.3.71-.71.71h-7.12c-.18,0-.3.12-.3.3v9.44c0,.18.12.3.3.3h12.41c.42,0,.71.3.71.71v5.76c0,.42-.3.71-.71.71h-20.36c-.42,0-.71-.3-.71-.71v-40.12c0-.42.3-.71.71-.71h20.36c.42,0,.71.3.71.71v5.76c0,.42-.3.71-.71.71" style="fill: #fff; stroke-width: 0px;"/>
  <path d="m144.05,184.21l-4.57-16.38c-.06-.12-.12-.24-.3-.24h-2.02c-.18,0-.3.12-.3.3v16.2c0,.42-.3.71-.71.71h-6.94c-.42,0-.71-.3-.71-.71v-40.18c0-.42.3-.71.71-.71h11.99c6.65,0,11.16,5.16,11.16,12.52,0,4.69-1.9,8.37-5.04,10.39-.18.06-.24.24-.18.36l5.46,17.51c.12.47-.12.83-.59.83h-7.12c-.42,0-.71-.24-.83-.59m-7.18-33.48v10.09c0,.18.12.3.3.3h2.67c2.43,0,4.15-1.96,4.15-5.28s-1.72-5.4-4.15-5.4h-2.67c-.18,0-.3.12-.3.3" style="fill: #fff; stroke-width: 0px;"/>
  <path d="m18.81,236.96l-6.11-18.46c-.06-.18-.12-.18-.24-.18h-5.1c-.12,0-.24.12-.24.24v18.28c0,.36-.24.59-.59.59h-3.03c-.36,0-.59-.24-.59-.59v-40.42c0-.36.24-.59.59-.59h9.79c5.76,0,9.67,4.57,9.67,11.4,0,5.28-2.37,9.14-6.17,10.57-.18.06-.24.12-.18.3l6.47,18.7c.12.42-.06.65-.47.65h-3.09c-.3,0-.59-.18-.71-.47m-11.69-37.21v14.96c0,.12.12.24.24.24h5.34c3.62,0,6.05-3.03,6.05-7.66s-2.43-7.77-6.05-7.77h-5.34c-.12,0-.24.12-.24.24" style="fill: #fff; stroke-width: 0px;"/>
  <path d="m44.96,199.57h-13.77c-.12,0-.24.12-.24.24v14.72c0,.12.12.24.24.24h8.67c.36,0,.59.24.59.59v2.55c0,.36-.24.59-.59.59h-8.67c-.12,0-.24.12-.24.24v14.78c0,.12.12.24.24.24h13.77c.36,0,.59.24.59.59v2.49c0,.36-.24.59-.59.59h-17.63c-.36,0-.59-.24-.59-.59v-40.36c0-.36.24-.59.59-.59h17.63c.36,0,.59.24.59.59v2.49c0,.36-.24.59-.59.59" style="fill: #fff; stroke-width: 0px;"/>
  <path d="m57.25,236.9l-8.61-40.36c-.06-.42.12-.65.53-.65h.65c.36,0,.59.18.65.53l7.72,37.1c.06.24.18.24.24,0l7.72-37.1c.06-.36.3-.53.65-.53h.59c.42,0,.59.24.53.65l-8.61,40.36c-.06.36-.3.53-.65.53h-.77c-.36,0-.59-.18-.65-.53" style="fill: #fff; stroke-width: 0px;"/>
  <path d="m72.24,236.84v-40.36c0-.36.24-.59.59-.59h.59c.36,0,.59.24.59.59v40.36c0,.36-.24.59-.59.59h-.59c-.36,0-.59-.24-.59-.59" style="fill: #fff; stroke-width: 0px;"/>
  <path d="m78.73,227.64v-1.13c0-.36.24-.59.59-.59h.53c.36,0,.59.24.59.59v1.07c0,5.28,2.97,8.72,7.12,8.72s7.3-3.32,7.3-8.37-3.32-7.42-7.89-10.86c-4.81-3.68-8.25-6.35-8.25-12.23s3.68-9.44,8.55-9.44c5.4,0,8.96,4.15,8.96,10.33v1.48c0,.36-.24.59-.59.59h-.53c-.36,0-.59-.24-.59-.59v-1.42c0-5.28-2.91-8.78-7.24-8.78-3.8,0-6.77,2.73-6.77,7.95,0,4.57,2.31,6.65,7.42,10.45,5.99,4.45,8.67,6.65,8.67,12.11,0,6.35-3.74,10.39-8.96,10.39s-8.9-4.04-8.9-10.27" style="fill: #fff; stroke-width: 0px;"/>
  <path d="m101.11,236.84v-40.36c0-.36.24-.59.59-.59h.59c.36,0,.59.24.59.59v40.36c0,.36-.24.59-.59.59h-.59c-.36,0-.59-.24-.59-.59" style="fill: #fff; stroke-width: 0px;"/>
  <path d="m107.87,228.36v-23.33c0-5.7,3.74-9.62,9.14-9.62s9.26,3.92,9.26,9.62v23.33c0,5.7-3.8,9.56-9.26,9.56s-9.14-3.86-9.14-9.56m16.62.12v-23.56c0-4.63-3.09-7.83-7.48-7.83s-7.36,3.2-7.36,7.83v23.56c0,4.57,3.03,7.78,7.36,7.78s7.48-3.21,7.48-7.78" style="fill: #fff; stroke-width: 0px;"/>
  <path d="m131.31,236.84v-40.36c0-.36.24-.59.59-.59h.71c.3,0,.53.12.65.47l14.13,36.09c.06.24.3.18.3-.06v-35.91c0-.36.24-.59.59-.59h.59c.36,0,.59.24.59.59v40.36c0,.36-.24.59-.59.59h-.77c-.3,0-.53-.12-.65-.47l-14.07-36.09c-.06-.24-.3-.18-.3.06v35.91c0,.36-.24.59-.59.59h-.59c-.36,0-.59-.24-.59-.59" style="fill: #fff; stroke-width: 0px;"/>
  <polygon points="82.37 120.23 155.05 120.23 155.05 131.33 63.38 131.33 82.37 120.23" style="fill: #00e78e; stroke-width: 0px;"/>
  <polygon points="63.38 131.33 128.87 65.84 137.61 74.58 87.38 124.81 63.38 131.33" style="fill: #00e78e; stroke-width: 0px;"/>
  <path d="m143.17,131.33h-23.87c0-13.55-4.91-26.63-13.83-36.81l17.96-15.72c12.73,14.54,19.74,33.2,19.74,52.54" style="fill: #00e78e; stroke-width: 0px;"/>
</svg>