<?xml version="1.0" encoding="UTF-8"?>
<svg id="Layer_1" data-name="Layer 1" xmlns="http://www.w3.org/2000/svg" viewBox="0 0 179.56 179.51">
  <path d="m0,117.53c4.18-4.18,10.97-4.18,15.15,0,4.18,4.18,4.18,10.97,0,15.15,4.18-4.18,10.97-4.18,15.15,0,4.18,4.18,4.18,10.97,0,15.15,4.18-4.18,10.97-4.18,15.15,0,4.18,4.18,4.18,10.97,0,15.15H0l.04-45.38s-.03-.05-.04-.07" style="fill: #fff; stroke-width: 0px;"/>
  <path d="m144.97,18.06c-12.54-12.54-32.87-12.54-45.41,0l-9.9,9.9L10.46,107.17c4.21-3.4,10.39-3.15,14.3.76,4.18,4.18,4.18,10.97,0,15.15,4.18-4.18,10.97-4.18,15.15,0,4.18,4.18,4.18,10.97,0,15.15,4.18-4.18,10.97-4.18,15.15,0,4.18,4.18,4.18,10.97,0,15.15l80.01-80.01,9.9-9.9c12.54-12.54,12.54-32.87,0-45.41" style="fill: #fff; stroke-width: 0px;"/>
  <polygon points="94.15 149.94 179.56 149.94 179.56 162.99 71.84 162.99 94.15 149.94" style="fill: #00e78e; stroke-width: 0px;"/>
  <polygon points="71.84 162.99 148.8 86.03 159.06 96.3 100.03 155.33 71.84 162.99" style="fill: #00e78e; stroke-width: 0px;"/>
  <path d="m165.6,162.99h-28.05c0-15.93-5.77-31.29-16.25-43.26l21.11-18.48c14.96,17.09,23.19,39.01,23.19,61.74" style="fill: #00e78e; stroke-width: 0px;"/>
</svg>