<?xml version="1.0" encoding="UTF-8"?>
<svg id="Layer_1" data-name="Layer 1" xmlns="http://www.w3.org/2000/svg" viewBox="0 0 155.64 241.02">
  <path d="m2.25,92.65c3.56-3.56,9.33-3.56,12.89,0,3.56,3.56,3.56,9.33,0,12.89,3.56-3.56,9.33-3.56,12.89,0s3.56,9.33,0,12.89c3.56-3.56,9.33-3.56,12.89,0,3.56,3.56,3.56,9.33,0,12.89H2.25l.03-38.62s-.02-.04-.03-.06" style="stroke-width: 0px;"/>
  <path d="m125.62,8c-10.67-10.67-27.97-10.67-38.64,0l-8.42,8.42L11.15,83.83c3.58-2.9,8.84-2.68,12.17.65,3.56,3.56,3.56,9.33,0,12.89,3.56-3.56,9.33-3.56,12.89,0,3.56,3.56,3.56,9.33,0,12.89,3.56-3.56,9.33-3.56,12.89,0s3.56,9.33,0,12.89L117.2,55.07l8.42-8.42c10.67-10.67,10.67-27.97,0-38.64" style="stroke-width: 0px;"/>
  <path d="m17.84,184.42l-4.69-16.8c-.06-.12-.12-.24-.3-.24h-2.07c-.18,0-.3.12-.3.3v16.62c0,.43-.3.73-.73.73H2.63c-.43,0-.73-.3-.73-.73v-41.21c0-.43.3-.73.73-.73h12.3c6.82,0,11.44,5.3,11.44,12.84,0,4.81-1.95,8.58-5.17,10.65-.18.06-.24.24-.18.37l5.6,17.96c.12.49-.12.85-.61.85h-7.31c-.43,0-.73-.24-.85-.61m-7.37-34.33v10.35c0,.18.12.3.3.3h2.74c2.5,0,4.26-2.01,4.26-5.42s-1.77-5.54-4.26-5.54h-2.74c-.18,0-.3.12-.3.3" style="stroke-width: 0px;"/>
  <path d="m46.53,184.35l-.97-5.84c0-.18-.18-.3-.37-.3h-7.61c-.18,0-.37.06-.37.24l-1.1,5.9c-.06.49-.37.67-.79.67h-7.12c-.49,0-.73-.24-.61-.79l8.95-41.15c.06-.43.37-.67.79-.67h8.22c.43,0,.73.24.79.67l8.89,41.15c.12.55-.12.79-.61.79h-7.31c-.43,0-.73-.18-.79-.67m-7.67-12.78h5.24c.18,0,.24-.12.24-.3l-2.56-15.71c-.06-.24-.3-.24-.37,0l-2.86,15.71c-.06.24.12.3.3.3" style="stroke-width: 0px;"/>
  <path d="m55.67,174.37v-1.95c0-.43.3-.73.73-.73h7c.43,0,.73.31.73.73v1.52c0,2.56,1.4,4.2,3.35,4.2s3.41-1.58,3.41-3.96c0-2.62-1.77-3.96-5.9-7-4.51-3.23-9.5-6.82-9.5-13.88s4.75-11.38,11.69-11.38,11.93,4.69,11.93,11.69v1.46c0,.43-.3.73-.73.73h-7c-.43,0-.73-.3-.73-.73v-1.64c0-2.5-1.4-4.14-3.47-4.14-1.89,0-3.23,1.46-3.23,4.02s1.4,3.96,5.66,7.12c6.33,4.63,9.74,7.3,9.74,13.39,0,7.18-4.87,11.69-11.87,11.69s-11.81-4.57-11.81-11.14" style="stroke-width: 0px;"/>
  <path d="m105.4,155.32c0,7.55-4.44,12.48-11.02,12.48h-4.57c-.18,0-.3.12-.3.31v16.19c0,.43-.3.73-.73.73h-7.12c-.43,0-.73-.3-.73-.73v-41.21c0-.43.3-.73.73-.73h12.3c6.82,0,11.44,5.3,11.44,12.97m-8.58.18c0-3.65-1.77-5.72-4.32-5.72h-2.68c-.18,0-.3.12-.3.3v10.71c0,.18.12.3.3.3h2.68c2.56,0,4.32-2.01,4.32-5.6" style="stroke-width: 0px;"/>
  <path d="m128.51,149.78h-12.72c-.18,0-.3.12-.3.3v9.62c0,.18.12.3.3.3h7.31c.43,0,.73.31.73.73v5.91c0,.43-.3.73-.73.73h-7.31c-.18,0-.3.12-.3.3v9.68c0,.18.12.31.3.31h12.72c.43,0,.73.3.73.73v5.9c0,.43-.3.73-.73.73h-20.88c-.43,0-.73-.3-.73-.73v-41.15c0-.43.3-.73.73-.73h20.88c.43,0,.73.3.73.73v5.91c0,.43-.3.73-.73.73" style="stroke-width: 0px;"/>
  <path d="m146.84,184.42l-4.69-16.8c-.06-.12-.12-.24-.3-.24h-2.07c-.18,0-.3.12-.3.3v16.62c0,.43-.3.73-.73.73h-7.12c-.43,0-.73-.3-.73-.73v-41.21c0-.43.3-.73.73-.73h12.3c6.82,0,11.44,5.3,11.44,12.84,0,4.81-1.95,8.58-5.17,10.65-.18.06-.24.24-.18.37l5.6,17.96c.12.49-.12.85-.61.85h-7.31c-.43,0-.73-.24-.85-.61m-7.37-34.33v10.35c0,.18.12.3.3.3h2.74c2.5,0,4.26-2.01,4.26-5.42s-1.77-5.54-4.26-5.54h-2.74c-.18,0-.3.12-.3.3" style="stroke-width: 0px;"/>
  <path d="m18.39,238.52l-6.27-18.93c-.06-.18-.12-.18-.24-.18h-5.23c-.12,0-.24.12-.24.24v18.75c0,.37-.24.61-.61.61h-3.1c-.37,0-.61-.24-.61-.61v-41.46c0-.36.24-.61.61-.61h10.04c5.91,0,9.92,4.69,9.92,11.69,0,5.42-2.43,9.38-6.33,10.84-.18.06-.24.12-.18.3l6.64,19.18c.12.43-.06.67-.49.67h-3.16c-.3,0-.61-.18-.73-.49m-11.99-38.17v15.34c0,.12.12.24.24.24h5.48c3.71,0,6.21-3.1,6.21-7.85s-2.5-7.97-6.21-7.97h-5.48c-.12,0-.24.12-.24.24" style="stroke-width: 0px;"/>
  <path d="m45.21,200.17h-14.12c-.12,0-.24.12-.24.24v15.1c0,.12.12.24.24.24h8.89c.37,0,.61.24.61.61v2.62c0,.37-.24.61-.61.61h-8.89c-.12,0-.24.12-.24.24v15.16c0,.12.12.24.24.24h14.12c.37,0,.61.24.61.61v2.56c0,.37-.24.61-.61.61h-18.08c-.37,0-.61-.24-.61-.61v-41.39c0-.36.24-.61.61-.61h18.08c.37,0,.61.24.61.61v2.56c0,.37-.24.61-.61.61" style="stroke-width: 0px;"/>
  <path d="m57.82,238.46l-8.83-41.39c-.06-.43.12-.67.55-.67h.67c.37,0,.61.18.67.55l7.91,38.05c.06.24.18.24.24,0l7.91-38.05c.06-.36.3-.55.67-.55h.61c.43,0,.61.24.55.67l-8.83,41.39c-.06.37-.3.55-.67.55h-.79c-.37,0-.61-.18-.67-.55" style="stroke-width: 0px;"/>
  <path d="m73.19,238.4v-41.39c0-.37.24-.61.61-.61h.61c.37,0,.61.24.61.61v41.39c0,.37-.24.61-.61.61h-.61c-.37,0-.61-.24-.61-.61" style="stroke-width: 0px;"/>
  <path d="m79.85,228.96v-1.16c0-.37.24-.61.61-.61h.55c.37,0,.61.24.61.61v1.1c0,5.42,3.04,8.95,7.3,8.95s7.49-3.41,7.49-8.58-3.41-7.61-8.1-11.14c-4.93-3.77-8.46-6.51-8.46-12.54s3.77-9.68,8.77-9.68c5.54,0,9.19,4.26,9.19,10.59v1.52c0,.37-.24.61-.61.61h-.55c-.37,0-.61-.24-.61-.61v-1.46c0-5.42-2.98-9.01-7.43-9.01-3.9,0-6.94,2.8-6.94,8.16,0,4.69,2.37,6.82,7.61,10.71,6.15,4.57,8.89,6.82,8.89,12.42,0,6.51-3.84,10.65-9.19,10.65s-9.13-4.14-9.13-10.53" style="stroke-width: 0px;"/>
  <path d="m102.8,238.4v-41.39c0-.37.24-.61.61-.61h.61c.37,0,.61.24.61.61v41.39c0,.37-.24.61-.61.61h-.61c-.37,0-.61-.24-.61-.61" style="stroke-width: 0px;"/>
  <path d="m109.73,229.69v-23.92c0-5.84,3.84-9.86,9.37-9.86s9.5,4.02,9.5,9.86v23.92c0,5.84-3.9,9.8-9.5,9.8s-9.37-3.96-9.37-9.8m17.04.12v-24.17c0-4.75-3.17-8.04-7.67-8.04s-7.55,3.29-7.55,8.04v24.17c0,4.69,3.1,7.97,7.55,7.97s7.67-3.29,7.67-7.97" style="stroke-width: 0px;"/>
  <path d="m133.78,238.4v-41.39c0-.37.24-.61.61-.61h.73c.3,0,.55.12.67.49l14.49,37.01c.06.24.3.18.3-.06v-36.83c0-.37.24-.61.61-.61h.61c.37,0,.61.24.61.61v41.39c0,.37-.24.61-.61.61h-.79c-.3,0-.55-.12-.67-.49l-14.43-37.01c-.06-.24-.3-.18-.3.06v36.83c0,.37-.24.61-.61.61h-.61c-.37,0-.61-.24-.61-.61" style="stroke-width: 0px;"/>
  <polygon points="82.37 120.23 155.05 120.23 155.05 131.33 63.38 131.33 82.37 120.23" style="fill: #00e78e; stroke-width: 0px;"/>
  <polygon points="63.38 131.33 128.87 65.84 137.61 74.58 87.38 124.81 63.38 131.33" style="fill: #00e78e; stroke-width: 0px;"/>
  <path d="m143.17,131.33h-23.87c0-13.55-4.91-26.63-13.83-36.81l17.96-15.72c12.73,14.54,19.74,33.2,19.74,52.54" style="fill: #00e78e; stroke-width: 0px;"/>
</svg>