<?xml version="1.0" encoding="UTF-8"?>
<svg id="Layer_1" data-name="Layer 1" xmlns="http://www.w3.org/2000/svg" viewBox="0 0 375.37 132.57">
  <path d="m.48,93.26c3.56-3.56,9.33-3.56,12.89,0,3.56,3.56,3.56,9.33,0,12.89,3.56-3.56,9.33-3.56,12.89,0s3.56,9.33,0,12.89c3.56-3.56,9.33-3.56,12.89,0,3.56,3.56,3.56,9.33,0,12.89H.48l.03-38.62s-.02-.04-.03-.06" style="fill: #fff; stroke-width: 0px;"/>
  <path d="m123.85,8.61c-10.67-10.67-27.97-10.67-38.64,0l-8.42,8.42L9.38,84.44c3.58-2.9,8.84-2.68,12.17.65,3.56,3.56,3.56,9.33,0,12.89,3.56-3.56,9.33-3.56,12.89,0,3.56,3.56,3.56,9.33,0,12.89,3.56-3.56,9.33-3.56,12.89,0s3.56,9.33,0,12.89L115.42,55.68l8.42-8.42c10.67-10.67,10.67-27.97,0-38.64" style="fill: #fff; stroke-width: 0px;"/>
  <path d="m188.11,57.46l-6.34-22.72c-.08-.16-.16-.33-.41-.33h-2.8c-.25,0-.41.16-.41.41v22.47c0,.58-.41.99-.99.99h-9.63c-.58,0-.99-.41-.99-.99V1.56c0-.58.41-.99.99-.99h16.63c9.22,0,15.48,7.16,15.48,17.37,0,6.5-2.63,11.61-7,14.41-.25.08-.33.33-.25.49l7.57,24.29c.16.66-.16,1.15-.82,1.15h-9.88c-.58,0-.99-.33-1.15-.82m-9.96-46.43v13.99c0,.25.16.41.41.41h3.7c3.37,0,5.76-2.72,5.76-7.33s-2.39-7.49-5.76-7.49h-3.7c-.25,0-.41.16-.41.41" style="fill: #fff; stroke-width: 0px;"/>
  <path d="m226.9,57.38l-1.32-7.9c0-.25-.25-.41-.49-.41h-10.29c-.25,0-.49.08-.49.33l-1.48,7.98c-.08.66-.49.91-1.07.91h-9.63c-.66,0-.99-.33-.82-1.07L213.4,1.56c.08-.58.49-.91,1.07-.91h11.11c.58,0,.99.33,1.07.91l12.02,55.65c.16.74-.16,1.07-.82,1.07h-9.88c-.58,0-.99-.25-1.07-.91m-10.37-17.29h7.08c.25,0,.33-.16.33-.41l-3.46-21.24c-.08-.33-.41-.33-.49,0l-3.87,21.24c-.08.33.16.41.41.41" style="fill: #fff; stroke-width: 0px;"/>
  <path d="m239.27,43.88v-2.63c0-.58.41-.99.99-.99h9.47c.58,0,.99.41.99.99v2.06c0,3.46,1.89,5.68,4.53,5.68s4.61-2.14,4.61-5.35c0-3.54-2.39-5.35-7.98-9.47-6.09-4.36-12.84-9.22-12.84-18.77s6.42-15.39,15.81-15.39,16.13,6.34,16.13,15.8v1.98c0,.58-.41.99-.99.99h-9.47c-.58,0-.99-.41-.99-.99v-2.22c0-3.37-1.89-5.6-4.69-5.6-2.55,0-4.36,1.98-4.36,5.43s1.89,5.35,7.66,9.63c8.56,6.26,13.17,9.88,13.17,18.11,0,9.71-6.59,15.8-16.05,15.8s-15.97-6.17-15.97-15.06" style="fill: #fff; stroke-width: 0px;"/>
  <path d="m306.51,18.11c0,10.21-6.01,16.88-14.9,16.88h-6.17c-.25,0-.41.17-.41.41v21.9c0,.58-.41.99-.99.99h-9.63c-.58,0-.99-.41-.99-.99V1.56c0-.58.41-.99.99-.99h16.63c9.22,0,15.48,7.16,15.48,17.53m-11.61.25c0-4.94-2.39-7.74-5.84-7.74h-3.62c-.25,0-.41.16-.41.41v14.49c0,.25.16.41.41.41h3.62c3.46,0,5.84-2.72,5.84-7.57" style="fill: #fff; stroke-width: 0px;"/>
  <path d="m337.76,10.62h-17.21c-.25,0-.41.16-.41.41v13.01c0,.25.16.41.41.41h9.88c.58,0,.99.41.99.99v7.99c0,.58-.41.99-.99.99h-9.88c-.25,0-.41.16-.41.41v13.09c0,.25.16.41.41.41h17.21c.58,0,.99.41.99.99v7.98c0,.58-.41.99-.99.99h-28.24c-.58,0-.99-.41-.99-.99V1.64c0-.58.41-.99.99-.99h28.24c.58,0,.99.41.99.99v7.99c0,.58-.41.99-.99.99" style="fill: #fff; stroke-width: 0px;"/>
  <path d="m362.56,57.46l-6.34-22.72c-.08-.16-.16-.33-.41-.33h-2.8c-.25,0-.41.16-.41.41v22.47c0,.58-.41.99-.99.99h-9.63c-.58,0-.99-.41-.99-.99V1.56c0-.58.41-.99.99-.99h16.63c9.22,0,15.48,7.16,15.48,17.37,0,6.5-2.63,11.61-7,14.41-.25.08-.33.33-.25.49l7.57,24.29c.16.66-.16,1.15-.82,1.15h-9.88c-.58,0-.99-.33-1.15-.82m-9.96-46.43v13.99c0,.25.16.41.41.41h3.7c3.37,0,5.76-2.72,5.76-7.33s-2.39-7.49-5.76-7.49h-3.7c-.25,0-.41.16-.41.41" style="fill: #fff; stroke-width: 0px;"/>
  <path d="m188.85,130.62l-8.48-25.6c-.08-.25-.16-.25-.33-.25h-7.08c-.16,0-.33.16-.33.33v25.36c0,.49-.33.82-.82.82h-4.2c-.49,0-.82-.33-.82-.82v-56.06c0-.49.33-.82.82-.82h13.58c7.99,0,13.42,6.34,13.42,15.8,0,7.33-3.29,12.68-8.56,14.65-.25.08-.33.16-.25.41l8.97,25.93c.16.58-.08.91-.66.91h-4.28c-.41,0-.82-.25-.99-.66m-16.22-51.62v20.74c0,.16.16.33.33.33h7.41c5.02,0,8.4-4.2,8.4-10.62s-3.38-10.78-8.4-10.78h-7.41c-.16,0-.33.16-.33.33" style="fill: #fff; stroke-width: 0px;"/>
  <path d="m225.12,78.76h-19.1c-.16,0-.33.16-.33.33v20.41c0,.16.16.33.33.33h12.02c.49,0,.82.33.82.82v3.54c0,.49-.33.82-.82.82h-12.02c-.16,0-.33.16-.33.33v20.5c0,.16.16.33.33.33h19.1c.49,0,.82.33.82.82v3.46c0,.49-.33.82-.82.82h-24.45c-.49,0-.82-.33-.82-.82v-55.98c0-.49.33-.82.82-.82h24.45c.49,0,.82.33.82.82v3.46c0,.49-.33.82-.82.82" style="fill: #fff; stroke-width: 0px;"/>
  <path d="m242.17,130.54l-11.94-55.98c-.08-.58.16-.91.74-.91h.91c.49,0,.82.25.9.74l10.7,51.45c.08.33.25.33.33,0l10.7-51.45c.08-.49.41-.74.9-.74h.82c.58,0,.82.33.74.91l-11.94,55.98c-.08.49-.41.74-.91.74h-1.07c-.49,0-.82-.25-.91-.74" style="fill: #fff; stroke-width: 0px;"/>
  <path d="m262.96,130.46v-55.98c0-.49.33-.82.82-.82h.82c.49,0,.82.33.82.82v55.98c0,.49-.33.82-.82.82h-.82c-.49,0-.82-.33-.82-.82" style="fill: #fff; stroke-width: 0px;"/>
  <path d="m271.96,117.7v-1.56c0-.49.33-.82.82-.82h.74c.49,0,.82.33.82.82v1.48c0,7.33,4.12,12.1,9.88,12.1s10.13-4.61,10.13-11.61-4.61-10.29-10.95-15.06c-6.67-5.1-11.44-8.81-11.44-16.96s5.1-13.09,11.85-13.09c7.49,0,12.43,5.76,12.43,14.32v2.06c0,.49-.33.82-.82.82h-.74c-.49,0-.82-.33-.82-.82v-1.98c0-7.33-4.03-12.18-10.04-12.18-5.27,0-9.38,3.79-9.38,11.03,0,6.34,3.21,9.22,10.29,14.49,8.31,6.17,12.02,9.22,12.02,16.79,0,8.81-5.19,14.41-12.43,14.41s-12.35-5.6-12.35-14.24" style="fill: #fff; stroke-width: 0px;"/>
  <path d="m303,130.46v-55.98c0-.49.33-.82.82-.82h.82c.49,0,.82.33.82.82v55.98c0,.49-.33.82-.82.82h-.82c-.49,0-.82-.33-.82-.82" style="fill: #fff; stroke-width: 0px;"/>
  <path d="m312.37,118.68v-32.35c0-7.9,5.19-13.34,12.68-13.34s12.84,5.43,12.84,13.34v32.35c0,7.9-5.27,13.25-12.84,13.25s-12.68-5.35-12.68-13.25m23.05.16v-32.68c0-6.42-4.28-10.87-10.37-10.87s-10.21,4.45-10.21,10.87v32.68c0,6.34,4.2,10.78,10.21,10.78s10.37-4.45,10.37-10.78" style="fill: #fff; stroke-width: 0px;"/>
  <path d="m344.89,130.46v-55.98c0-.49.33-.82.82-.82h.99c.41,0,.74.17.91.66l19.59,50.05c.08.33.41.25.41-.08v-49.8c0-.49.33-.82.82-.82h.82c.49,0,.82.33.82.82v55.98c0,.49-.33.82-.82.82h-1.07c-.41,0-.74-.16-.91-.66l-19.51-50.05c-.08-.33-.41-.25-.41.08v49.8c0,.49-.33.82-.82.82h-.82c-.49,0-.82-.33-.82-.82" style="fill: #fff; stroke-width: 0px;"/>
  <polygon points="80.59 120.83 153.28 120.83 153.28 131.94 61.61 131.94 80.59 120.83" style="fill: #00e78e; stroke-width: 0px;"/>
  <polygon points="61.61 131.94 127.1 66.45 135.84 75.19 85.6 125.42 61.61 131.94" style="fill: #00e78e; stroke-width: 0px;"/>
  <path d="m141.4,131.94h-23.87c0-13.55-4.91-26.63-13.83-36.81l17.96-15.72c12.73,14.54,19.74,33.2,19.74,52.54" style="fill: #00e78e; stroke-width: 0px;"/>
</svg>